<svg width="24" height="24" viewBox="0 0 24 24" fill="none" xmlns="http://www.w3.org/2000/svg">
<path d="M8.58247 21.7273C8.58193 21.6943 8.58093 21.659 8.57997 21.6255L8.57989 21.6226L8.56514 21.1038L8.04727 21.1379C6.61787 21.2319 5.71214 20.9124 5.13244 20.5002C4.54795 20.0845 4.24363 19.5379 4.08533 19.0931L4.07955 19.0769L4.07268 19.0611C3.82715 18.4974 3.47857 17.9845 3.04483 17.5487L2.99211 17.4957L2.92619 17.4605C2.78461 17.3848 2.54869 17.2391 2.35482 17.0372C2.16074 16.8352 2.04773 16.6193 2.04884 16.3892L2.04884 16.389C2.04944 16.2569 2.10237 16.1303 2.19604 16.0371C2.28972 15.9439 2.41651 15.8916 2.54866 15.8916H2.54884H2.55242C2.65321 15.8923 2.75146 15.9233 2.83429 15.9808C2.91737 16.0384 2.98102 16.1199 3.01686 16.2144L3.06631 16.3448L3.17614 16.4308C3.23915 16.4802 3.30554 16.525 3.37482 16.5649C4.1066 17.1306 4.67465 17.8811 5.02036 18.7393C5.32419 19.5797 6.04363 19.9524 6.77266 20.0854C7.49324 20.2168 8.30421 20.1352 8.97942 20.0113L8.9797 20.0113C9.05182 19.998 9.12599 20.0007 9.19693 20.0193C9.26787 20.0379 9.33386 20.0719 9.39021 20.1188C9.44657 20.1657 9.49192 20.2244 9.52305 20.2908C9.55416 20.3572 9.5703 20.4296 9.57032 20.5029L8.58247 21.7273ZM8.58247 21.7273L8.58685 21.9948M8.58247 21.7273L8.58685 21.9948M8.58699 22.003H8.58692C8.58692 22.1356 8.6396 22.2628 8.73337 22.3566C8.82714 22.4503 8.95431 22.503 9.08692 22.503C9.21953 22.503 9.34671 22.4503 9.44048 22.3566C9.5335 22.2635 9.58608 22.1376 9.58691 22.0062L9.58221 21.6975C9.58219 21.6966 9.58216 21.6958 9.58214 21.6949C9.57716 21.5011 9.57032 21.2217 9.57032 20.503L8.58699 22.003ZM8.58699 22.003L8.58685 21.9948M8.58699 22.003L8.58685 21.9948M8.7829 17.4805C8.71439 17.3675 8.69335 17.2321 8.72435 17.1037C8.75608 16.976 8.79128 16.8573 8.82922 16.7482L9.01275 16.2202L8.46765 16.0964C7.46891 15.8696 6.29092 15.4338 5.32682 14.5365C4.37421 13.6498 3.59 12.2755 3.43132 10.0888L3.43081 10.0817L3.43009 10.0747C3.40093 9.78656 3.38759 9.49708 3.39013 9.20752L3.39022 9.20752L3.39013 9.19795C3.37695 7.92825 3.78302 6.68967 4.54537 5.67423L4.68875 5.48326L4.63033 5.25171C4.60605 5.15549 4.58239 5.04986 4.56025 4.9348C4.40232 3.89305 4.53114 2.82791 4.93294 1.85376L4.93297 1.85377L4.9353 1.84792C4.96273 1.77896 5.00525 1.71701 5.05973 1.66662C5.11421 1.61622 5.17928 1.57865 5.25017 1.55667L5.25018 1.55669L5.25502 1.55514C5.42634 1.50009 6.57957 1.2271 8.99844 2.75655L9.17586 2.86874L9.38019 2.82065C11.3943 2.34667 13.491 2.34667 15.5051 2.82065L15.7108 2.86906L15.8889 2.75526C18.3151 1.20474 19.4713 1.49946 19.6439 1.55771L19.6465 1.5586C19.716 1.58161 19.7797 1.61955 19.8329 1.66975C19.8862 1.71996 19.9279 1.78121 19.955 1.84921L19.955 1.84922L19.9571 1.85448C20.351 2.81048 20.4811 3.85462 20.3339 4.87796C20.3127 4.99796 20.289 5.10681 20.2643 5.20722L20.1544 5.43815L20.3404 5.68098C21.1118 6.68824 21.5205 7.92652 21.5001 9.1951L21.4999 9.1951L21.5 9.20683C21.5023 9.50868 21.4878 9.81043 21.4567 10.1107L21.4541 10.1363L21.4541 10.1621C21.4539 11.5858 20.9486 12.9632 20.028 14.0493C19.1074 15.1353 17.8313 15.8594 16.4268 16.0927L15.8485 16.1888L16.0347 16.7447C16.075 16.8653 16.1093 16.9878 16.1372 17.1119L16.139 17.1196L16.1409 17.1272C16.2404 17.5115 16.2871 17.9075 16.2799 18.3044L16.2798 18.3044V18.3135V20.6594C16.27 21.3086 16.27 21.7856 16.27 22.0029V22.0029C16.27 22.1355 16.2173 22.2627 16.1236 22.3565C16.0298 22.4503 15.9026 22.5029 15.77 22.5029C15.6374 22.5029 15.5102 22.4503 15.4165 22.3565C15.3227 22.2627 15.27 22.1355 15.27 22.0029V22.0029C15.27 21.781 15.27 21.2986 15.2797 20.6551H15.2798V20.6475V18.319C15.2864 18.0073 15.2521 17.696 15.1777 17.3933C15.1032 16.9516 14.8914 16.5445 14.5722 16.2298L14.5616 16.2194L14.5505 16.2097C14.4776 16.1459 14.4248 16.0623 14.3985 15.969C14.3722 15.8757 14.3736 15.7768 14.4025 15.6844C14.4314 15.5919 14.4865 15.5098 14.5612 15.448C14.6359 15.3863 14.7269 15.3476 14.8232 15.3366L14.8232 15.3366C16.6055 15.1335 17.9741 14.6621 18.9248 13.7729C19.8845 12.8753 20.3441 11.6228 20.4606 10.0243C20.4885 9.75288 20.5017 9.48019 20.5 9.20738C20.5248 8.12276 20.1671 7.06393 19.4896 6.21638C19.4164 6.12352 19.3333 6.02247 19.2484 5.92689L19.2473 5.92565C19.1861 5.85716 19.1449 5.77313 19.1284 5.68278C19.1118 5.59271 19.1204 5.49983 19.153 5.41428C19.2409 5.18747 19.3062 4.95256 19.348 4.71294L19.3493 4.70526L19.3504 4.69753C19.4348 4.10569 19.4014 3.50301 19.2522 2.92409L19.1237 2.42556L18.6292 2.56854C17.7097 2.83436 16.8448 3.2616 16.075 3.83026C16.0162 3.8687 15.9501 3.8945 15.8808 3.90599C15.8087 3.91794 15.7349 3.91412 15.6644 3.89479L15.6633 3.89448C13.5566 3.32201 11.3353 3.32166 9.2284 3.89344L9.22839 3.89344L9.22631 3.89401C9.15599 3.91342 9.08233 3.91749 9.01031 3.90593C8.94137 3.89487 8.87548 3.86974 8.81673 3.83214C8.04335 3.2661 7.17499 2.84282 6.25261 2.58231L5.75786 2.44258L5.63194 2.94102C5.48231 3.53332 5.45232 4.14952 5.54374 4.75355L5.54513 4.7627L5.54685 4.77179C5.588 4.98903 5.64761 5.20237 5.72504 5.40948L5.72502 5.40948L5.72655 5.41349C5.75945 5.49925 5.76809 5.59241 5.75151 5.68276C5.7352 5.77163 5.69512 5.85438 5.63556 5.92225C5.55782 6.00564 5.48417 6.09276 5.41487 6.1833C4.73573 7.04246 4.37379 8.10959 4.39011 9.20459C4.38767 9.46514 4.39954 9.72564 4.42569 9.98489C4.54456 11.6021 5.00307 12.8645 5.95949 13.7675C6.90768 14.6627 8.27176 15.1339 10.0463 15.3366L10.0468 15.3367C10.143 15.3476 10.2339 15.3862 10.3086 15.4478C10.3832 15.5095 10.4384 15.5915 10.4673 15.6839C10.4962 15.7763 10.4976 15.8751 10.4714 15.9683C10.4452 16.0614 10.3924 16.145 10.3196 16.2088L10.3081 16.2189L10.2972 16.2297C9.98836 16.5354 9.77813 16.9264 9.69332 17.3523C9.65958 17.4764 9.57926 17.5829 9.46888 17.6495C9.35546 17.7178 9.21955 17.7385 9.09095 17.7068C8.96236 17.6751 8.85157 17.5937 8.7829 17.4805Z" fill="#848484" stroke="#848484"/>
</svg>
