<?xml version="1.0" standalone="no"?>
<!DOCTYPE svg PUBLIC "-//W3C//DTD SVG 20010904//EN"
 "http://www.w3.org/TR/2001/REC-SVG-20010904/DTD/svg10.dtd">
<svg version="1.0" xmlns="http://www.w3.org/2000/svg"
 width="64.000000pt" height="64.000000pt" viewBox="0 0 64.000000 64.000000"
 preserveAspectRatio="xMidYMid meet">

<g transform="translate(0.000000,64.000000) scale(0.100000,-0.100000)"
fill="#000000" stroke="none">
<path d="M344 587 c-11 -29 0 -102 16 -102 19 0 22 106 3 112 -7 3 -16 -2 -19
-10z"/>
<path d="M130 497 c0 -16 62 -77 78 -77 22 0 13 26 -21 58 -35 34 -57 41 -57
19z"/>
<path d="M520 465 l-45 -45 -40 20 c-144 74 -310 -92 -236 -235 l21 -39 -45
-46 c-45 -46 -56 -70 -32 -70 16 0 447 431 447 448 0 24 -26 12 -70 -33z
m-105 -57 c14 -6 25 -14 25 -17 0 -10 -189 -196 -193 -190 -32 35 -35 101 -7
147 38 62 114 88 175 60z"/>
<path d="M45 290 c-13 -21 11 -31 61 -28 36 2 49 7 49 18 0 19 -99 27 -110 10z"/>
</g>
</svg>
