<svg width="40" height="40" viewBox="0 0 40 40" fill="white" xmlns="http://www.w3.org/2000/svg">
<path d="M38.2748 24.2124C35.1765 24.9231 31.9485 24.8352 28.8936 23.9568C25.8386 23.0785 23.0568 21.4386 20.8091 19.1909C18.5614 16.9432 16.9215 14.1614 16.0431 11.1064C15.1648 8.05143 15.0769 4.82342 15.7875 1.72515L15.7873 1.7251C12.5254 2.47754 9.52445 4.08942 7.09593 6.39337C4.66741 8.69732 2.8999 11.6094 1.9769 14.8271C1.05391 18.0449 1.00909 21.4511 1.84709 24.692C2.6851 27.9329 4.37537 30.8905 6.74242 33.2575C9.10948 35.6246 12.067 37.3149 15.3079 38.1529C18.5489 38.9909 21.955 38.9461 25.1728 38.0231C28.3906 37.1001 31.3026 35.3326 33.6066 32.9041C35.9105 30.4756 37.5224 27.4746 38.2749 24.2127L38.2748 24.2124Z" fill="white" stroke="white" stroke-width="2" stroke-linecap="round" stroke-linejoin="round"/>
</svg>
