<svg width="50" height="50" viewBox="0 0 50 50" fill="none" xmlns="http://www.w3.org/2000/svg">
<path d="M43.2748 29.2124C40.1765 29.9231 36.9485 29.8352 33.8936 28.9568C30.8386 28.0785 28.0568 26.4386 25.8091 24.1909C23.5614 21.9432 21.9215 19.1614 21.0431 16.1064C20.1648 13.0514 20.0769 9.82342 20.7875 6.72515L20.7873 6.7251C17.5254 7.47754 14.5244 9.08942 12.0959 11.3934C9.66741 13.6973 7.8999 16.6094 6.9769 19.8271C6.05391 23.0449 6.00909 26.4511 6.84709 29.692C7.6851 32.9329 9.37537 35.8905 11.7424 38.2575C14.1095 40.6246 17.067 42.3149 20.3079 43.1529C23.5489 43.9909 26.955 43.9461 30.1728 43.0231C33.3906 42.1001 36.3026 40.3326 38.6066 37.9041C40.9105 35.4756 42.5224 32.4746 43.2749 29.2127L43.2748 29.2124Z" fill="white" stroke="black" stroke-width="2" stroke-linecap="round" stroke-linejoin="round"/>
</svg>
