<svg width="32" height="32" viewBox="0 0 32 32" fill="none" xmlns="http://www.w3.org/2000/svg">
<path d="M28.5185 15.1468L10.5215 4.14819C10.3699 4.05555 10.1963 4.00497 10.0187 4.00164C9.8411 3.99831 9.6658 4.04237 9.51085 4.12927C9.3559 4.21617 9.2269 4.34277 9.13711 4.49607C9.04733 4.64936 9 4.82381 9 5.00146V26.9986C9 27.1763 9.04733 27.3507 9.13711 27.504C9.2269 27.6573 9.3559 27.7839 9.51085 27.8708C9.6658 27.9577 9.8411 28.0018 10.0187 27.9984C10.1963 27.9951 10.3699 27.9445 10.5215 27.8519L28.5185 16.8533C28.6647 16.764 28.7855 16.6386 28.8693 16.4892C28.9531 16.3398 28.9971 16.1713 28.9971 16C28.9971 15.8287 28.9531 15.6603 28.8693 15.5109C28.7855 15.3615 28.6647 15.2361 28.5185 15.1468Z" stroke="#848484" stroke-width="2" stroke-linecap="round" stroke-linejoin="round"/>
</svg>
