<svg width="50" height="50" viewBox="0 0 50 50" fill="none" xmlns="http://www.w3.org/2000/svg">
<path d="M11.7501 35.4166L10.2709 36.8958C9.88289 37.2861 9.6651 37.8142 9.6651 38.3645C9.6651 38.9149 9.88289 39.443 10.2709 39.8333C10.6613 40.2213 11.1893 40.4391 11.7397 40.4391C12.2901 40.4391 12.8181 40.2213 13.2084 39.8333L14.6876 38.3541C15.0289 37.9556 15.2072 37.4429 15.187 36.9186C15.1667 36.3943 14.9494 35.8969 14.5783 35.5259C14.2073 35.1548 13.7099 34.9375 13.1856 34.9172C12.6613 34.897 12.1486 35.0753 11.7501 35.4166ZM10.4167 25C10.4167 24.4474 10.1973 23.9175 9.80655 23.5268C9.41585 23.1361 8.88595 22.9166 8.33341 22.9166H6.25008C5.69755 22.9166 5.16764 23.1361 4.77694 23.5268C4.38624 23.9175 4.16675 24.4474 4.16675 25C4.16675 25.5525 4.38624 26.0824 4.77694 26.4731C5.16764 26.8638 5.69755 27.0833 6.25008 27.0833H8.33341C8.88595 27.0833 9.41585 26.8638 9.80655 26.4731C10.1973 26.0824 10.4167 25.5525 10.4167 25ZM25.0001 10.4166C25.5526 10.4166 26.0825 10.1971 26.4732 9.80643C26.8639 9.41573 27.0834 8.88583 27.0834 8.33329V6.24996C27.0834 5.69742 26.8639 5.16752 26.4732 4.77682C26.0825 4.38612 25.5526 4.16663 25.0001 4.16663C24.4475 4.16663 23.9176 4.38612 23.5269 4.77682C23.1362 5.16752 22.9167 5.69742 22.9167 6.24996V8.33329C22.9167 8.88583 23.1362 9.41573 23.5269 9.80643C23.9176 10.1971 24.4475 10.4166 25.0001 10.4166ZM11.7501 14.6875C12.1381 15.0723 12.6619 15.2893 13.2084 15.2916C13.4826 15.2932 13.7544 15.2407 14.0082 15.137C14.262 15.0333 14.4929 14.8805 14.6876 14.6875C15.0756 14.2971 15.2934 13.7691 15.2934 13.2187C15.2934 12.6683 15.0756 12.1403 14.6876 11.75L13.2084 10.2708C12.8099 9.92949 12.2972 9.75114 11.7729 9.77139C11.2486 9.79165 10.7512 10.009 10.3802 10.38C10.0091 10.7511 9.79177 11.2484 9.77152 11.7728C9.75126 12.2971 9.92961 12.8097 10.2709 13.2083L11.7501 14.6875ZM36.7501 15.2916C37.2966 15.2893 37.8204 15.0723 38.2084 14.6875L39.6876 13.2083C39.9057 13.0215 40.0828 12.7917 40.2078 12.5332C40.3329 12.2748 40.4032 11.9932 40.4142 11.7063C40.4253 11.4194 40.377 11.1333 40.2722 10.866C40.1675 10.5986 40.0086 10.3558 39.8056 10.1528C39.6026 9.94974 39.3598 9.79087 39.0924 9.68613C38.8251 9.58139 38.539 9.53305 38.2521 9.54413C37.9651 9.55521 37.6836 9.62548 37.4251 9.75053C37.1667 9.87558 36.9368 10.0527 36.7501 10.2708L35.4167 11.75C35.0287 12.1403 34.8109 12.6683 34.8109 13.2187C34.8109 13.7691 35.0287 14.2971 35.4167 14.6875C35.784 15.0528 36.2742 15.2682 36.7917 15.2916H36.7501ZM43.7501 22.9166H41.6667C41.1142 22.9166 40.5843 23.1361 40.1936 23.5268C39.8029 23.9175 39.5834 24.4474 39.5834 25C39.5834 25.5525 39.8029 26.0824 40.1936 26.4731C40.5843 26.8638 41.1142 27.0833 41.6667 27.0833H43.7501C44.3026 27.0833 44.8325 26.8638 45.2232 26.4731C45.6139 26.0824 45.8334 25.5525 45.8334 25C45.8334 24.4474 45.6139 23.9175 45.2232 23.5268C44.8325 23.1361 44.3026 22.9166 43.7501 22.9166ZM25.0001 39.5833C24.4475 39.5833 23.9176 39.8028 23.5269 40.1935C23.1362 40.5842 22.9167 41.1141 22.9167 41.6666V43.75C22.9167 44.3025 23.1362 44.8324 23.5269 45.2231C23.9176 45.6138 24.4475 45.8333 25.0001 45.8333C25.5526 45.8333 26.0825 45.6138 26.4732 45.2231C26.8639 44.8324 27.0834 44.3025 27.0834 43.75V41.6666C27.0834 41.1141 26.8639 40.5842 26.4732 40.1935C26.0825 39.8028 25.5526 39.5833 25.0001 39.5833ZM38.2501 35.4166C37.8543 35.1965 37.3975 35.1113 36.949 35.174C36.5004 35.2367 36.0845 35.4439 35.7642 35.7641C35.444 36.0844 35.2368 36.5003 35.1741 36.9488C35.1114 37.3974 35.1966 37.8542 35.4167 38.25L36.8959 39.7291C37.2863 40.1171 37.8143 40.3349 38.3647 40.3349C38.9151 40.3349 39.4431 40.1171 39.8334 39.7291C40.2214 39.3388 40.4392 38.8108 40.4392 38.2604C40.4392 37.71 40.2214 37.182 39.8334 36.7916L38.2501 35.4166ZM25.0001 13.5416C22.7338 13.5416 20.5185 14.2136 18.6342 15.4727C16.7499 16.7318 15.2812 18.5213 14.414 20.615C13.5467 22.7088 13.3198 25.0127 13.7619 27.2354C14.204 29.4581 15.2953 31.4997 16.8978 33.1022C18.5003 34.7047 20.542 35.796 22.7647 36.2381C24.9874 36.6802 27.2913 36.4533 29.385 35.5861C31.4787 34.7188 33.2683 33.2502 34.5273 31.3659C35.7864 29.4816 36.4584 27.2662 36.4584 25C36.4529 21.9627 35.2439 19.0514 33.0963 16.9038C30.9486 14.7561 28.0373 13.5471 25.0001 13.5416ZM25.0001 32.2916C23.5579 32.2916 22.1482 31.864 20.949 31.0628C19.7499 30.2615 18.8153 29.1227 18.2635 27.7904C17.7116 26.458 17.5672 24.9919 17.8485 23.5774C18.1299 22.163 18.8243 20.8637 19.8441 19.844C20.8639 18.8242 22.1631 18.1298 23.5775 17.8484C24.992 17.567 26.4581 17.7114 27.7905 18.2633C29.1229 18.8152 30.2617 19.7498 31.0629 20.9489C31.8641 22.148 32.2917 23.5578 32.2917 25C32.2917 26.9338 31.5235 28.7885 30.1561 30.1559C28.7886 31.5234 26.934 32.2916 25.0001 32.2916Z" fill="black"/>
</svg>
